<svg width="17" height="17" viewBox="0 0 17 17" fill="none" xmlns="http://www.w3.org/2000/svg">
<path d="M14.6021 0.583374H2.39781C1.39715 0.583374 0.583313 1.39721 0.583313 2.39787V14.6022C0.583313 15.6029 1.39715 16.4167 2.39781 16.4167H14.6021C15.6028 16.4167 16.4166 15.6029 16.4166 14.6022V2.39787C16.4166 1.39721 15.6028 0.583374 14.6021 0.583374ZM15.2291 14.6022C15.2291 14.9482 14.9481 15.2292 14.6021 15.2292H2.39781C2.05185 15.2292 1.77081 14.9482 1.77081 14.6022V4.08096C1.77081 3.735 2.05106 3.45554 2.39623 3.45396H14.6037C14.9489 3.45396 15.2291 3.735 15.2291 4.07937V14.6038V14.6022Z" fill="#5B7083"/>
</svg>
