<svg width="16" height="14" viewBox="0 0 16 14" fill="none" xmlns="http://www.w3.org/2000/svg">
<path d="M14.25 2.79999H1.75C1.2325 2.79999 0.8125 2.37874 0.8125 1.86249C0.8125 1.34624 1.2325 0.924988 1.75 0.924988H14.25C14.7675 0.924988 15.1875 1.34374 15.1875 1.86249C15.1875 2.38124 14.7675 2.79999 14.25 2.79999ZM14.25 7.93749H1.75C1.2325 7.93749 0.8125 7.51749 0.8125 6.99999C0.8125 6.48249 1.2325 6.06249 1.75 6.06249H14.25C14.7675 6.06249 15.1875 6.48249 15.1875 6.99999C15.1875 7.51749 14.7675 7.93749 14.25 7.93749ZM8 13.075H1.75C1.2325 13.075 0.8125 12.6562 0.8125 12.1375C0.8125 11.6187 1.2325 11.2 1.75 11.2H8C8.5175 11.2 8.9375 11.6212 8.9375 12.1375C8.9375 12.6537 8.5175 13.075 8 13.075Z" fill="#0F1419"/>
</svg>
